<svg width="17" height="13" viewBox="0 0 17 13" fill="none" xmlns="http://www.w3.org/2000/svg">
<path fill-rule="evenodd" clip-rule="evenodd" d="M16.573 6.50002C16.573 6.06855 16.2232 5.71877 15.7917 5.71877H1.20837C0.776901 5.71877 0.427124 6.06855 0.427124 6.50002C0.427124 6.93149 0.776901 7.28127 1.20837 7.28127H15.7917C16.2232 7.28127 16.573 6.93149 16.573 6.50002Z" fill="black"/>
<path fill-rule="evenodd" clip-rule="evenodd" d="M16.573 1.29169C16.573 0.860215 16.2232 0.510437 15.7917 0.510437H1.20837C0.776901 0.510437 0.427124 0.860215 0.427124 1.29169C0.427124 1.72316 0.776901 2.07294 1.20837 2.07294H15.7917C16.2232 2.07294 16.573 1.72316 16.573 1.29169Z" fill="black"/>
<path fill-rule="evenodd" clip-rule="evenodd" d="M16.573 11.7084C16.573 11.2769 16.2232 10.9271 15.7917 10.9271H1.20837C0.776901 10.9271 0.427124 11.2769 0.427124 11.7084C0.427124 12.1398 0.776901 12.4896 1.20837 12.4896H15.7917C16.2232 12.4896 16.573 12.1398 16.573 11.7084Z" fill="black"/>
</svg>
